<svg width="170" height="46" viewBox="0 0 170 46" fill="none" xmlns="http://www.w3.org/2000/svg">
<path d="M80.8962 18.1987C82.9288 18.1987 84.5388 18.7924 85.7262 19.9798C86.9136 21.147 87.5072 22.908 87.5072 25.2626V34.5H83.7338V25.7456C83.7338 24.3368 83.4219 23.2803 82.798 22.5759C82.1741 21.8514 81.2786 21.4891 80.1113 21.4891C78.8434 21.4891 77.8271 21.9118 77.0624 22.757C76.2976 23.5821 75.9152 24.7695 75.9152 26.3191V34.5H72.1418V25.7456C72.1418 24.3368 71.8299 23.2803 71.206 22.5759C70.5821 21.8514 69.6866 21.4891 68.5193 21.4891C67.2313 21.4891 66.2049 21.9017 65.4402 22.7268C64.6956 23.552 64.3232 24.7494 64.3232 26.3191V34.5H60.5498V18.3798H64.1421V20.4326C64.7459 19.7081 65.5006 19.1546 66.4062 18.7723C67.3118 18.3899 68.3181 18.1987 69.4249 18.1987C70.6324 18.1987 71.6991 18.4301 72.6248 18.893C73.5707 19.3358 74.3153 19.9999 74.8587 20.8854C75.5228 20.0401 76.3781 19.3861 77.4246 18.9232C78.4711 18.4402 79.6283 18.1987 80.8962 18.1987Z" fill="#EE7878"/>
<path d="M99.7216 34.7113C98.0915 34.7113 96.6224 34.3591 95.3143 33.6547C94.0061 32.9503 92.9798 31.9743 92.2351 30.7265C91.5106 29.4586 91.1484 28.0298 91.1484 26.4399C91.1484 24.85 91.5106 23.4312 92.2351 22.1835C92.9798 20.9357 94.0061 19.9596 95.3143 19.2553C96.6224 18.5509 98.0915 18.1987 99.7216 18.1987C101.372 18.1987 102.851 18.5509 104.159 19.2553C105.467 19.9596 106.484 20.9357 107.208 22.1835C107.953 23.4312 108.325 24.85 108.325 26.4399C108.325 28.0298 107.953 29.4586 107.208 30.7265C106.484 31.9743 105.467 32.9503 104.159 33.6547C102.851 34.3591 101.372 34.7113 99.7216 34.7113ZM99.7216 31.4812C101.11 31.4812 102.257 31.0183 103.163 30.0926C104.069 29.1668 104.521 27.9493 104.521 26.4399C104.521 24.9305 104.069 23.713 103.163 22.7872C102.257 21.8615 101.11 21.3986 99.7216 21.3986C98.333 21.3986 97.1859 21.8615 96.2802 22.7872C95.3947 23.713 94.952 24.9305 94.952 26.4399C94.952 27.9493 95.3947 29.1668 96.2802 30.0926C97.1859 31.0183 98.333 31.4812 99.7216 31.4812Z" fill="#EE7878"/>
<path d="M132.28 18.1987C134.312 18.1987 135.922 18.7924 137.11 19.9798C138.297 21.147 138.891 22.908 138.891 25.2626V34.5H135.117V25.7456C135.117 24.3368 134.805 23.2803 134.182 22.5759C133.558 21.8514 132.662 21.4891 131.495 21.4891C130.227 21.4891 129.211 21.9118 128.446 22.757C127.681 23.5821 127.299 24.7695 127.299 26.3191V34.5H123.525V25.7456C123.525 24.3368 123.213 23.2803 122.59 22.5759C121.966 21.8514 121.07 21.4891 119.903 21.4891C118.615 21.4891 117.589 21.9017 116.824 22.7268C116.079 23.552 115.707 24.7494 115.707 26.3191V34.5H111.933V18.3798H115.526V20.4326C116.129 19.7081 116.884 19.1546 117.79 18.7723C118.695 18.3899 119.702 18.1987 120.809 18.1987C122.016 18.1987 123.083 18.4301 124.008 18.893C124.954 19.3358 125.699 19.9999 126.242 20.8854C126.906 20.0401 127.762 19.3861 128.808 18.9232C129.855 18.4402 131.012 18.1987 132.28 18.1987Z" fill="#EE7878"/>
<path d="M149.026 34.7113C147.355 34.7113 146.047 34.2585 145.101 33.3528C144.176 32.4271 143.713 31.129 143.713 29.4586V12.1008H147.486V29.187C147.486 30.797 148.241 31.602 149.75 31.602C150.253 31.602 150.706 31.5013 151.109 31.3001L151.29 34.3188C150.586 34.5805 149.831 34.7113 149.026 34.7113Z" fill="#EE7878"/>
<path d="M169.461 18.3798V32.0548C169.461 37.73 166.674 40.5676 161.099 40.5676C159.63 40.5676 158.221 40.3664 156.873 39.9639C155.544 39.5815 154.448 39.018 153.582 38.2734L155.273 35.4358C155.957 36.0194 156.792 36.4823 157.778 36.8244C158.764 37.1665 159.801 37.3376 160.888 37.3376C162.538 37.3376 163.745 36.9351 164.51 36.1301C165.295 35.3452 165.687 34.1276 165.687 32.4774V31.7227C165.084 32.3868 164.349 32.9 163.484 33.2623C162.618 33.6044 161.683 33.7755 160.676 33.7755C158.523 33.7755 156.822 33.1818 155.575 31.9944C154.347 30.807 153.733 29.026 153.733 26.6512V18.3798H157.507V26.1682C157.507 27.5971 157.829 28.6738 158.473 29.3983C159.137 30.1026 160.073 30.4548 161.28 30.4548C162.628 30.4548 163.695 30.0423 164.48 29.2171C165.285 28.392 165.687 27.1946 165.687 25.6248V18.3798H169.461Z" fill="#EE7878"/>
<rect width="46" height="46" rx="8" fill="#F89B9B"/>
<path d="M7.91708 21.3098L7.97353 20.813C7.8402 20.7979 7.70638 20.8369 7.60216 20.9215C7.49793 21.006 7.43205 21.1288 7.41933 21.2624L7.91708 21.3098ZM22.8782 37.8457V38.3457H23.3036L23.3717 37.9258L22.8782 37.8457ZM7.86062 21.8066C12.1203 22.2907 15.1333 23.5445 17.2652 25.1256C19.3961 26.7061 20.6725 28.6326 21.4304 30.5037C22.19 32.3788 22.4291 34.2001 22.4769 35.5564C22.5008 36.2335 22.4768 36.7914 22.4473 37.1778C22.4325 37.3709 22.4164 37.5209 22.4041 37.6211C22.398 37.6712 22.3929 37.7089 22.3894 37.7333C22.3877 37.7455 22.3864 37.7543 22.3855 37.7598C22.3851 37.7625 22.3848 37.7644 22.3847 37.7653C22.3846 37.7658 22.3845 37.7661 22.3845 37.7662C22.3845 37.7662 22.3845 37.7661 22.3845 37.7661C22.3846 37.7659 22.3846 37.7657 22.8782 37.8457C23.3717 37.9258 23.3718 37.9254 23.3718 37.925C23.3719 37.9248 23.3719 37.9244 23.372 37.924C23.3721 37.9231 23.3723 37.9221 23.3725 37.9208C23.3729 37.9183 23.3734 37.9149 23.3741 37.9106C23.3754 37.902 23.3772 37.8899 23.3794 37.8745C23.3838 37.8436 23.3898 37.7993 23.3968 37.7422C23.4107 37.6281 23.4284 37.4632 23.4444 37.2541C23.4763 36.8361 23.5016 36.2406 23.4763 35.5212C23.4256 34.0846 23.1726 32.141 22.3573 30.1283C21.5403 28.1114 20.1593 26.0271 17.8609 24.3224C15.5635 22.6185 12.3755 21.3132 7.97353 20.813L7.86062 21.8066ZM22.8782 37.8457C22.8782 37.3457 22.8783 37.3457 22.8785 37.3457C22.8784 37.3457 22.8785 37.3457 22.8784 37.3457C22.8782 37.3457 22.8778 37.3457 22.8771 37.3457C22.8758 37.3457 22.8734 37.3457 22.8701 37.3457C22.8636 37.3456 22.8531 37.3455 22.8388 37.3453C22.8104 37.3448 22.7669 37.3439 22.7095 37.342C22.5947 37.3381 22.4243 37.3304 22.2066 37.3147C21.7709 37.2834 21.1473 37.2205 20.4025 37.0944C18.9101 36.8416 16.947 36.3375 15.0395 35.3361C13.1346 34.336 11.2956 32.846 10.0245 30.6216C8.75485 28.3997 8.02925 25.4058 8.41482 21.3572L7.41933 21.2624C7.01747 25.4818 7.76829 28.6888 9.15623 31.1177C10.5427 33.544 12.5423 35.1545 14.5746 36.2215C16.6042 37.287 18.6767 37.8164 20.2355 38.0804C21.0164 38.2126 21.6723 38.2789 22.1348 38.3122C22.3662 38.3288 22.5495 38.3372 22.6761 38.3414C22.7395 38.3435 22.7887 38.3446 22.8227 38.3452C22.8397 38.3454 22.8529 38.3456 22.8622 38.3457C22.8669 38.3457 22.8705 38.3457 22.8732 38.3457C22.8745 38.3457 22.8756 38.3457 22.8764 38.3457C22.8768 38.3457 22.8773 38.3457 22.8775 38.3457C22.8778 38.3457 22.8782 38.3457 22.8782 37.8457Z" fill="white"/>
<path d="M38.4102 21.4151L38.9101 21.4249C38.9128 21.2908 38.8614 21.1612 38.7675 21.0653C38.6736 20.9694 38.5451 20.9153 38.411 20.9151L38.4102 21.4151ZM23.3434 37.8547L22.8456 37.9014L22.8853 38.325L23.3098 38.3536L23.3434 37.8547ZM37.9103 21.4053C37.8261 25.6916 36.859 28.8085 35.4839 31.0786C34.1093 33.3478 32.3103 34.7986 30.5182 35.7278C28.7222 36.6592 26.9311 37.0672 25.5852 37.2415C24.9133 37.3284 24.3556 37.3567 23.9682 37.3634C23.7745 37.3667 23.6237 37.3646 23.5228 37.3618C23.4723 37.3604 23.4343 37.3588 23.4097 37.3576C23.3974 37.357 23.3885 37.3565 23.383 37.3562C23.3802 37.3561 23.3784 37.3559 23.3774 37.3559C23.3769 37.3558 23.3766 37.3558 23.3765 37.3558C23.3765 37.3558 23.3766 37.3558 23.3766 37.3558C23.3768 37.3558 23.377 37.3559 23.3434 37.8547C23.3098 38.3536 23.3101 38.3536 23.3105 38.3536C23.3107 38.3537 23.3112 38.3537 23.3116 38.3537C23.3124 38.3538 23.3135 38.3538 23.3148 38.3539C23.3173 38.3541 23.3208 38.3543 23.3251 38.3545C23.3338 38.355 23.346 38.3557 23.3615 38.3565C23.3927 38.358 23.4374 38.3598 23.4949 38.3614C23.6098 38.3646 23.7757 38.3668 23.9853 38.3632C24.4044 38.356 24.9997 38.3256 25.7136 38.2332C27.1392 38.0487 29.0507 37.6153 30.9785 36.6156C32.9103 35.6139 34.8566 34.0442 36.3392 31.5968C37.8212 29.1503 38.8231 25.8544 38.9101 21.4249L37.9103 21.4053ZM23.3434 37.8547C23.8412 37.808 23.8412 37.8082 23.8412 37.8083C23.8412 37.8083 23.8412 37.8084 23.8412 37.8083C23.8412 37.8081 23.8412 37.8077 23.8411 37.807C23.841 37.8057 23.8408 37.8034 23.8405 37.8001C23.8399 37.7935 23.8391 37.7831 23.838 37.7689C23.8358 37.7405 23.8327 37.6971 23.8292 37.6398C23.8223 37.5252 23.8141 37.3547 23.8094 37.1365C23.7999 36.6998 23.8043 36.073 23.8603 35.3197C23.9726 33.8102 24.2912 31.8087 25.1102 29.8159C25.9281 27.8261 27.2399 25.8559 29.3359 24.3827C31.4295 22.9112 34.3427 21.9092 38.4095 21.9151L38.411 20.9151C34.1724 20.909 31.0496 21.9559 28.7609 23.5646C26.4746 25.1715 25.0579 27.3128 24.1853 29.4358C23.3139 31.556 22.9804 33.6689 22.8631 35.2456C22.8043 36.0354 22.7995 36.6946 22.8096 37.1582C22.8146 37.3901 22.8234 37.5734 22.831 37.6999C22.8348 37.7631 22.8383 37.8122 22.841 37.8461C22.8423 37.8631 22.8434 37.8763 22.8442 37.8855C22.8446 37.8901 22.8449 37.8938 22.8451 37.8964C22.8452 37.8978 22.8453 37.8989 22.8454 37.8997C22.8454 37.9001 22.8455 37.9005 22.8455 37.9007C22.8455 37.9011 22.8456 37.9014 23.3434 37.8547Z" fill="white"/>
<path d="M23.035 7.81079L23.3966 7.46555C23.3006 7.36498 23.1671 7.30892 23.0281 7.31084C22.8891 7.31275 22.7571 7.37247 22.6639 7.47565L23.035 7.81079ZM22.9571 29.6513L22.6268 30.0266L22.9658 30.325L23.297 30.0179L22.9571 29.6513ZM22.6733 8.15603C25.3726 10.9839 26.6943 13.7088 27.1829 16.1921C27.672 18.6775 27.3335 20.9556 26.6578 22.8976C25.9812 24.8423 24.9684 26.4435 24.1211 27.5606C23.6982 28.1183 23.3186 28.5528 23.0461 28.8464C22.9099 28.9932 22.8007 29.1046 22.7265 29.1784C22.6894 29.2153 22.6611 29.2427 22.6425 29.2605C22.6333 29.2694 22.6264 29.2759 22.6222 29.2799C22.62 29.2819 22.6185 29.2833 22.6177 29.2841C22.6173 29.2845 22.617 29.2847 22.617 29.2848C22.6169 29.2849 22.617 29.2848 22.617 29.2848C22.6171 29.2847 22.6172 29.2846 22.9571 29.6513C23.297 30.0179 23.2973 30.0177 23.2976 30.0175C23.2977 30.0173 23.298 30.017 23.2983 30.0168C23.2989 30.0162 23.2997 30.0155 23.3006 30.0147C23.3024 30.0129 23.3049 30.0106 23.3081 30.0076C23.3144 30.0016 23.3234 29.9932 23.3347 29.9822C23.3575 29.9604 23.3902 29.9287 23.4317 29.8874C23.5147 29.8048 23.6333 29.6838 23.7792 29.5266C24.0708 29.2123 24.4723 28.7525 24.9179 28.1649C25.8078 26.9915 26.8814 25.2979 27.6023 23.2262C28.3241 21.1517 28.694 18.6915 28.1641 15.999C27.6339 13.3045 26.2093 10.4122 23.3966 7.46555L22.6733 8.15603ZM22.9571 29.6513C23.2875 29.276 23.2877 29.2761 23.2878 29.2762C23.2878 29.2762 23.2879 29.2763 23.2878 29.2762C23.2878 29.2762 23.2876 29.276 23.2872 29.2757C23.2864 29.275 23.285 29.2737 23.2829 29.2719C23.2789 29.2682 23.2722 29.2623 23.2632 29.254C23.2451 29.2375 23.2174 29.2119 23.1811 29.1774C23.1085 29.1085 23.0014 29.004 22.8678 28.8659C22.6005 28.5894 22.2278 28.1786 21.8132 27.6474C20.9826 26.5833 19.9911 25.0457 19.3347 23.1447C18.6795 21.2472 18.3585 18.9893 18.8624 16.4705C19.3662 13.952 20.7009 11.1408 23.406 8.14593L22.6639 7.47565C19.857 10.5833 18.4261 13.5534 17.8818 16.2743C17.3376 18.9948 17.6861 21.4342 18.3894 23.4711C19.0916 25.5047 20.1476 27.1388 21.0249 28.2627C21.4642 28.8255 21.8606 29.2628 22.1489 29.561C22.293 29.7101 22.4103 29.8246 22.4926 29.9027C22.5338 29.9418 22.5662 29.9718 22.5889 29.9925C22.6003 30.0028 22.6092 30.0109 22.6155 30.0166C22.6187 30.0194 22.6212 30.0217 22.6231 30.0233C22.624 30.0242 22.6248 30.0249 22.6254 30.0254C22.6257 30.0257 22.6261 30.026 22.6262 30.0261C22.6265 30.0264 22.6268 30.0266 22.9571 29.6513Z" fill="white"/>
<path d="M37.8652 32.7451L37.9716 33.2337C38.1114 33.2032 38.2315 33.1143 38.3014 32.9895C38.3713 32.8647 38.3844 32.7158 38.3374 32.5807L37.8652 32.7451ZM18.5733 21.9836L18.4394 21.5018L17.9871 21.6275L18.084 22.0868L18.5733 21.9836ZM37.7588 32.2566C29.8001 33.9895 25.16 31.3604 22.4902 28.3607C21.1424 26.8465 20.283 25.221 19.7605 23.9706C19.4997 23.3464 19.324 22.8184 19.214 22.4488C19.159 22.264 19.1205 22.1191 19.0961 22.0217C19.0839 21.973 19.0752 21.9362 19.0697 21.9123C19.0669 21.9004 19.065 21.8917 19.0638 21.8863C19.0632 21.8836 19.0628 21.8818 19.0626 21.8808C19.0625 21.8803 19.0624 21.88 19.0624 21.8799C19.0624 21.8799 19.0624 21.88 19.0624 21.88C19.0624 21.8802 19.0625 21.8804 18.5733 21.9836C18.084 22.0868 18.0841 22.0872 18.0842 22.0875C18.0842 22.0877 18.0843 22.0882 18.0844 22.0886C18.0846 22.0894 18.0848 22.0904 18.0851 22.0916C18.0856 22.0941 18.0863 22.0974 18.0872 22.1016C18.0891 22.11 18.0917 22.1217 18.0952 22.1367C18.1021 22.1668 18.1123 22.2099 18.1262 22.2651C18.1539 22.3755 18.1962 22.5345 18.2555 22.7339C18.3742 23.1327 18.5614 23.6947 18.8378 24.3562C19.3898 25.6772 20.3021 27.4065 21.7432 29.0256C24.6509 32.2925 29.6568 35.0441 37.9716 33.2337L37.7588 32.2566ZM18.5733 21.9836C18.7071 22.4654 18.7069 22.4654 18.7068 22.4655C18.7068 22.4654 18.7067 22.4655 18.7067 22.4655C18.7068 22.4654 18.7071 22.4653 18.7077 22.4652C18.7087 22.4649 18.7106 22.4644 18.7133 22.4637C18.7188 22.4622 18.7276 22.4599 18.7397 22.4567C18.7638 22.4505 18.801 22.441 18.8505 22.4291C18.9496 22.4053 19.0978 22.3717 19.2897 22.3336C19.6735 22.2573 20.231 22.1636 20.9171 22.0957C22.2913 21.9597 24.1704 21.9284 26.2 22.3423C30.2306 23.1642 34.8984 25.7455 37.393 32.9095L38.3374 32.5807C35.7137 25.0462 30.7355 22.2466 26.3998 21.3625C24.2461 20.9233 22.262 20.9577 20.8186 21.1005C20.096 21.1721 19.5061 21.271 19.0949 21.3527C18.8892 21.3936 18.728 21.4301 18.6169 21.4568C18.5613 21.4702 18.5183 21.4811 18.4885 21.4888C18.4736 21.4927 18.462 21.4957 18.4538 21.4979C18.4497 21.499 18.4464 21.4999 18.444 21.5006C18.4428 21.5009 18.4419 21.5012 18.4411 21.5014C18.4407 21.5015 18.4403 21.5016 18.4401 21.5017C18.4397 21.5018 18.4394 21.5018 18.5733 21.9836Z" fill="white"/>
<path d="M8.02617 32.7451L7.91979 33.2337C7.77997 33.2032 7.65989 33.1143 7.58995 32.9895C7.52002 32.8647 7.50692 32.7158 7.55397 32.5807L8.02617 32.7451ZM27.3181 21.9836L27.4519 21.5018L27.9042 21.6275L27.8073 22.0868L27.3181 21.9836ZM8.13254 32.2566C16.0912 33.9895 20.7313 31.3604 23.4012 28.3607C24.7489 26.8465 25.6083 25.221 26.1308 23.9706C26.3917 23.3464 26.5674 22.8184 26.6774 22.4488C26.7323 22.264 26.7708 22.1191 26.7952 22.0217C26.8075 21.973 26.8162 21.9362 26.8217 21.9123C26.8244 21.9004 26.8264 21.8917 26.8276 21.8863C26.8281 21.8836 26.8285 21.8818 26.8288 21.8808C26.8289 21.8803 26.8289 21.88 26.8289 21.8799C26.8289 21.8799 26.8289 21.88 26.8289 21.88C26.8289 21.8802 26.8288 21.8804 27.3181 21.9836C27.8073 22.0868 27.8072 22.0872 27.8072 22.0875C27.8071 22.0877 27.807 22.0882 27.8069 22.0886C27.8068 22.0894 27.8065 22.0904 27.8063 22.0916C27.8057 22.0941 27.805 22.0974 27.8041 22.1016C27.8023 22.11 27.7996 22.1217 27.7962 22.1367C27.7893 22.1668 27.779 22.2099 27.7652 22.2651C27.7374 22.3755 27.6952 22.5345 27.6358 22.7339C27.5172 23.1327 27.3299 23.6947 27.0535 24.3562C26.5015 25.6772 25.5892 27.4065 24.1482 29.0256C21.2404 32.2925 16.2346 35.0441 7.91979 33.2337L8.13254 32.2566ZM27.3181 21.9836C27.1843 22.4654 27.1844 22.4654 27.1846 22.4655C27.1846 22.4654 27.1847 22.4655 27.1846 22.4655C27.1845 22.4654 27.1842 22.4653 27.1837 22.4652C27.1826 22.4649 27.1807 22.4644 27.178 22.4637C27.1725 22.4622 27.1637 22.4599 27.1517 22.4567C27.1275 22.4505 27.0903 22.441 27.0408 22.4291C26.9418 22.4053 26.7935 22.3717 26.6017 22.3336C26.2178 22.2573 25.6603 22.1636 24.9742 22.0957C23.6001 21.9597 21.7209 21.9284 19.6914 22.3423C15.6607 23.1642 10.993 25.7455 8.49836 32.9095L7.55397 32.5807C10.1776 25.0462 15.1558 22.2466 19.4916 21.3625C21.6452 20.9233 23.6294 20.9577 25.0727 21.1005C25.7954 21.1721 26.3852 21.271 26.7964 21.3527C27.0021 21.3936 27.1634 21.4301 27.2745 21.4568C27.33 21.4702 27.3731 21.4811 27.4029 21.4888C27.4178 21.4927 27.4294 21.4957 27.4376 21.4979C27.4417 21.499 27.4449 21.4999 27.4473 21.5006C27.4485 21.5009 27.4495 21.5012 27.4503 21.5014C27.4506 21.5015 27.451 21.5016 27.4512 21.5017C27.4516 21.5018 27.4519 21.5018 27.3181 21.9836Z" fill="white"/>
</svg>
