<svg width="46" height="46" viewBox="0 0 46 46" fill="none" xmlns="http://www.w3.org/2000/svg">
    <rect width="46" height="46" rx="8" fill="#F89B9B"/>
    <path d="M7.91703 21.3096L7.97349 20.8128C7.84016 20.7976 7.70634 20.8367 7.60211 20.9212C7.49789 21.0057 7.432 21.1286 7.41928 21.2622L7.91703 21.3096ZM22.8781 37.8455V38.3455H23.3036L23.3717 37.9255L22.8781 37.8455ZM7.86058 21.8064C12.1203 22.2904 15.1333 23.5443 17.2651 25.1254C19.396 26.7058 20.6725 28.6324 21.4304 30.5035C22.19 32.3786 22.429 34.1999 22.4768 35.5562C22.5007 36.2333 22.4768 36.7912 22.4472 37.1776C22.4325 37.3707 22.4163 37.5206 22.4041 37.6209C22.398 37.671 22.3928 37.7087 22.3894 37.733C22.3876 37.7452 22.3863 37.7541 22.3855 37.7595C22.3851 37.7622 22.3848 37.7641 22.3846 37.7651C22.3845 37.7656 22.3845 37.7659 22.3845 37.7659C22.3845 37.766 22.3845 37.7659 22.3845 37.7659C22.3845 37.7657 22.3846 37.7655 22.8781 37.8455C23.3717 37.9255 23.3717 37.9252 23.3718 37.9248C23.3718 37.9246 23.3719 37.9241 23.372 37.9237C23.3721 37.9229 23.3723 37.9219 23.3725 37.9206C23.3729 37.918 23.3734 37.9146 23.374 37.9103C23.3753 37.9018 23.3771 37.8897 23.3793 37.8743C23.3838 37.8434 23.3898 37.799 23.3967 37.742C23.4107 37.6278 23.4283 37.4629 23.4443 37.2538C23.4763 36.8359 23.5016 36.2404 23.4762 35.521C23.4256 34.0844 23.1725 32.1408 22.3572 30.128C21.5403 28.1112 20.1592 26.0268 17.8608 24.3222C15.5634 22.6183 12.3755 21.313 7.97349 20.8128L7.86058 21.8064ZM22.8781 37.8455C22.8781 37.3455 22.8783 37.3455 22.8784 37.3455C22.8784 37.3455 22.8784 37.3455 22.8783 37.3455C22.8782 37.3455 22.8777 37.3455 22.8771 37.3455C22.8757 37.3455 22.8734 37.3455 22.8701 37.3455C22.8635 37.3454 22.853 37.3453 22.8388 37.3451C22.8103 37.3446 22.7669 37.3437 22.7095 37.3417C22.5947 37.3379 22.4242 37.3301 22.2065 37.3145C21.7709 37.2832 21.1472 37.2203 20.4025 37.0941C18.91 36.8414 16.947 36.3373 15.0394 35.3358C13.1346 34.3358 11.2955 32.8457 10.0244 30.6213C8.7548 28.3995 8.0292 25.4055 8.41478 21.357L7.41928 21.2622C7.01743 25.4816 7.76825 28.6886 9.15618 31.1175C10.5426 33.5438 12.5423 35.1542 14.5746 36.2212C16.6041 37.2867 18.6766 37.8161 20.2355 38.0801C21.0164 38.2124 21.6723 38.2787 22.1348 38.3119C22.3662 38.3286 22.5494 38.3369 22.6761 38.3412C22.7394 38.3433 22.7886 38.3444 22.8226 38.3449C22.8397 38.3452 22.8529 38.3453 22.8622 38.3454C22.8668 38.3455 22.8705 38.3455 22.8731 38.3455C22.8745 38.3455 22.8755 38.3455 22.8764 38.3455C22.8768 38.3455 22.8772 38.3455 22.8774 38.3455C22.8778 38.3455 22.8781 38.3455 22.8781 37.8455Z"
          fill="white"/>
    <path d="M38.4101 21.4149L38.91 21.4247C38.9127 21.2905 38.8613 21.1609 38.7674 21.0651C38.6735 20.9692 38.5451 20.9151 38.4109 20.9149L38.4101 21.4149ZM23.3433 37.8545L22.8455 37.9012L22.8852 38.3248L23.3097 38.3534L23.3433 37.8545ZM37.9102 21.405C37.826 25.6913 36.8589 28.8082 35.4838 31.0784C34.1092 33.3475 32.3102 34.7983 30.5181 35.7276C28.7221 36.6589 26.9311 37.067 25.5851 37.2412C24.9133 37.3282 24.3555 37.3565 23.9681 37.3631C23.7744 37.3665 23.6236 37.3644 23.5227 37.3616C23.4722 37.3602 23.4342 37.3586 23.4096 37.3574C23.3973 37.3568 23.3884 37.3563 23.3829 37.356C23.3802 37.3558 23.3783 37.3557 23.3773 37.3556C23.3768 37.3556 23.3765 37.3556 23.3764 37.3556C23.3764 37.3556 23.3765 37.3556 23.3765 37.3556C23.3767 37.3556 23.3769 37.3556 23.3433 37.8545C23.3097 38.3534 23.31 38.3534 23.3104 38.3534C23.3106 38.3534 23.3111 38.3534 23.3115 38.3535C23.3124 38.3535 23.3134 38.3536 23.3147 38.3537C23.3173 38.3538 23.3207 38.354 23.325 38.3543C23.3337 38.3548 23.3459 38.3555 23.3615 38.3562C23.3926 38.3577 23.4373 38.3596 23.4948 38.3612C23.6097 38.3644 23.7756 38.3666 23.9852 38.363C24.4043 38.3558 24.9996 38.3254 25.7135 38.233C27.1391 38.0484 29.0506 37.615 30.9784 36.6153C32.9102 35.6137 34.8565 34.044 36.3391 31.5965C37.8211 29.15 38.823 25.8541 38.91 21.4247L37.9102 21.405ZM23.3433 37.8545C23.8411 37.8078 23.8411 37.808 23.8411 37.8081C23.8411 37.8081 23.8411 37.8081 23.8411 37.808C23.8411 37.8079 23.8411 37.8074 23.841 37.8068C23.8409 37.8054 23.8407 37.8031 23.8404 37.7998C23.8399 37.7932 23.839 37.7828 23.8379 37.7686C23.8357 37.7402 23.8326 37.6969 23.8291 37.6396C23.8222 37.5249 23.814 37.3545 23.8093 37.1363C23.7998 36.6996 23.8042 36.0728 23.8602 35.3195C23.9725 33.81 24.2912 31.8085 25.1102 29.8157C25.928 27.8258 27.2398 25.8557 29.3358 24.3825C31.4294 22.9109 34.3426 21.909 38.4094 21.9149L38.4109 20.9149C34.1723 20.9087 31.0495 21.9557 28.7608 23.5643C26.4745 25.1713 25.0578 27.3125 24.1852 29.4356C23.3139 31.5557 22.9803 33.6686 22.863 35.2453C22.8042 36.0351 22.7995 36.6943 22.8095 37.158C22.8146 37.3899 22.8233 37.5731 22.8309 37.6996C22.8347 37.7629 22.8382 37.812 22.8409 37.8459C22.8422 37.8629 22.8433 37.876 22.8441 37.8853C22.8445 37.8899 22.8448 37.8936 22.845 37.8962C22.8451 37.8975 22.8452 37.8986 22.8453 37.8994C22.8454 37.8999 22.8454 37.9003 22.8454 37.9005C22.8455 37.9009 22.8455 37.9012 23.3433 37.8545Z"
          fill="white"/>
    <path d="M23.0349 7.81055L23.3966 7.46531C23.3006 7.36474 23.167 7.30868 23.028 7.31059C22.889 7.31251 22.7571 7.37222 22.6639 7.4754L23.0349 7.81055ZM22.9571 29.651L22.6267 30.0263L22.9657 30.3248L23.297 30.0177L22.9571 29.651ZM22.6732 8.15578C25.3725 10.9836 26.6942 13.7086 27.1829 16.1919C27.672 18.6772 27.3334 20.9554 26.6577 22.8973C25.9811 24.8421 24.9683 26.4432 24.1211 27.5604C23.6982 28.118 23.3185 28.5525 23.046 28.8462C22.9099 28.9929 22.8007 29.1043 22.7265 29.1781C22.6894 29.215 22.661 29.2425 22.6425 29.2603C22.6332 29.2692 22.6264 29.2757 22.6221 29.2797C22.62 29.2817 22.6185 29.2831 22.6177 29.2839C22.6172 29.2843 22.617 29.2845 22.6169 29.2846C22.6169 29.2846 22.6169 29.2846 22.6169 29.2846C22.617 29.2845 22.6172 29.2843 22.9571 29.651C23.297 30.0177 23.2972 30.0175 23.2975 30.0172C23.2976 30.0171 23.298 30.0168 23.2983 30.0165C23.2988 30.016 23.2996 30.0153 23.3005 30.0144C23.3024 30.0127 23.3049 30.0103 23.3081 30.0073C23.3144 30.0014 23.3233 29.9929 23.3347 29.982C23.3575 29.9601 23.3901 29.9284 23.4317 29.8871C23.5147 29.8045 23.6332 29.6835 23.7791 29.5263C24.0707 29.2121 24.4722 28.7523 24.9179 28.1647C25.8077 26.9913 26.8814 25.2977 27.6022 23.226C28.324 21.1514 28.6939 18.6913 28.1641 15.9988C27.6338 13.3043 26.2093 10.4119 23.3966 7.46531L22.6732 8.15578ZM22.9571 29.651C23.2874 29.2757 23.2876 29.2759 23.2877 29.276C23.2877 29.276 23.2878 29.276 23.2878 29.276C23.2877 29.276 23.2875 29.2758 23.2871 29.2754C23.2864 29.2747 23.2849 29.2735 23.2829 29.2717C23.2788 29.268 23.2722 29.262 23.2631 29.2538C23.2451 29.2373 23.2174 29.2117 23.1811 29.1772C23.1084 29.1082 23.0013 29.0038 22.8677 28.8656C22.6004 28.5891 22.2278 28.1784 21.8131 27.6471C20.9825 26.583 19.991 25.0455 19.3346 23.1445C18.6794 21.2469 18.3584 18.989 18.8623 16.4702C19.3661 13.9518 20.7009 11.1406 23.406 8.14569L22.6639 7.4754C19.857 10.583 18.426 13.5532 17.8817 16.2741C17.3375 18.9946 17.6861 21.434 18.3894 23.4709C19.0915 25.5044 20.1476 27.1385 21.0248 28.2624C21.4642 28.8252 21.8606 29.2626 22.1488 29.5607C22.293 29.7098 22.4103 29.8243 22.4926 29.9025C22.5338 29.9415 22.5662 29.9715 22.5889 29.9922C22.6002 30.0026 22.6091 30.0106 22.6155 30.0163C22.6186 30.0192 22.6212 30.0214 22.6231 30.0231C22.624 30.0239 22.6248 30.0246 22.6254 30.0252C22.6257 30.0254 22.626 30.0257 22.6262 30.0259C22.6265 30.0261 22.6267 30.0263 22.9571 29.651Z"
          fill="white"/>
    <path d="M37.8651 32.7451L37.9715 33.2337C38.1113 33.2032 38.2314 33.1143 38.3013 32.9895C38.3713 32.8647 38.3844 32.7158 38.3373 32.5807L37.8651 32.7451ZM18.5732 21.9836L18.4394 21.5018L17.987 21.6275L18.084 22.0868L18.5732 21.9836ZM37.7587 32.2566C29.8001 33.9895 25.16 31.3604 22.4901 28.3607C21.1424 26.8465 20.2829 25.221 19.7605 23.9706C19.4996 23.3464 19.3239 22.8184 19.2139 22.4488C19.159 22.264 19.1205 22.119 19.096 22.0217C19.0838 21.973 19.0751 21.9362 19.0696 21.9123C19.0669 21.9004 19.0649 21.8917 19.0637 21.8863C19.0631 21.8836 19.0627 21.8818 19.0625 21.8808C19.0624 21.8803 19.0624 21.88 19.0623 21.8799C19.0623 21.8799 19.0624 21.88 19.0623 21.88C19.0624 21.8802 19.0624 21.8804 18.5732 21.9836C18.084 22.0868 18.084 22.0872 18.0841 22.0875C18.0842 22.0877 18.0843 22.0882 18.0843 22.0886C18.0845 22.0894 18.0847 22.0904 18.085 22.0916C18.0855 22.0941 18.0863 22.0974 18.0872 22.1016C18.089 22.11 18.0917 22.1217 18.0951 22.1367C18.102 22.1668 18.1123 22.2099 18.1261 22.2651C18.1538 22.3755 18.1961 22.5345 18.2554 22.7339C18.3741 23.1327 18.5614 23.6947 18.8378 24.3562C19.3898 25.6772 20.3021 27.4065 21.7431 29.0256C24.6508 32.2925 29.6567 35.0441 37.9715 33.2337L37.7587 32.2566ZM18.5732 21.9836C18.707 22.4654 18.7068 22.4654 18.7067 22.4655C18.7067 22.4654 18.7066 22.4655 18.7067 22.4655C18.7068 22.4654 18.7071 22.4653 18.7076 22.4652C18.7086 22.4649 18.7105 22.4644 18.7133 22.4637C18.7187 22.4622 18.7276 22.4599 18.7396 22.4567C18.7638 22.4505 18.801 22.441 18.8505 22.4291C18.9495 22.4053 19.0978 22.3717 19.2896 22.3336C19.6735 22.2573 20.2309 22.1636 20.9171 22.0957C22.2912 21.9597 24.1704 21.9284 26.1999 22.3423C30.2306 23.1642 34.8983 25.7455 37.3929 32.9095L38.3373 32.5807C35.7137 25.0462 30.7355 22.2466 26.3997 21.3625C24.246 20.9233 22.2619 20.9577 20.8186 21.1005C20.0959 21.1721 19.5061 21.271 19.0948 21.3527C18.8891 21.3936 18.7279 21.4301 18.6168 21.4568C18.5612 21.4702 18.5182 21.4811 18.4884 21.4888C18.4735 21.4927 18.4619 21.4957 18.4537 21.4979C18.4496 21.499 18.4464 21.4999 18.444 21.5006C18.4428 21.5009 18.4418 21.5012 18.441 21.5014C18.4406 21.5015 18.4402 21.5016 18.44 21.5017C18.4397 21.5018 18.4394 21.5018 18.5732 21.9836Z"
          fill="white"/>
    <path d="M8.02612 32.7451L7.91974 33.2337C7.77993 33.2032 7.65985 33.1143 7.58991 32.9895C7.51997 32.8647 7.50687 32.7158 7.55393 32.5807L8.02612 32.7451ZM27.318 21.9836L27.4519 21.5018L27.9042 21.6275L27.8073 22.0868L27.318 21.9836ZM8.1325 32.2566C16.0912 33.9895 20.7313 31.3604 23.4011 28.3607C24.7489 26.8465 25.6083 25.221 26.1308 23.9706C26.3916 23.3464 26.5673 22.8184 26.6773 22.4488C26.7323 22.264 26.7708 22.119 26.7952 22.0217C26.8074 21.973 26.8161 21.9362 26.8216 21.9123C26.8244 21.9004 26.8263 21.8917 26.8275 21.8863C26.8281 21.8836 26.8285 21.8818 26.8287 21.8808C26.8288 21.8803 26.8289 21.88 26.8289 21.8799C26.8289 21.8799 26.8289 21.88 26.8289 21.88C26.8289 21.8802 26.8288 21.8804 27.318 21.9836C27.8073 22.0868 27.8072 22.0872 27.8071 22.0875C27.8071 22.0877 27.807 22.0882 27.8069 22.0886C27.8067 22.0894 27.8065 22.0904 27.8062 22.0916C27.8057 22.0941 27.805 22.0974 27.8041 22.1016C27.8022 22.11 27.7996 22.1217 27.7961 22.1367C27.7892 22.1668 27.779 22.2099 27.7651 22.2651C27.7374 22.3755 27.6951 22.5345 27.6358 22.7339C27.5171 23.1327 27.3299 23.6947 27.0535 24.3562C26.5015 25.6772 25.5892 27.4065 24.1481 29.0256C21.2404 32.2925 16.2345 35.0441 7.91974 33.2337L8.1325 32.2566ZM27.318 21.9836C27.1842 22.4654 27.1844 22.4654 27.1845 22.4655C27.1845 22.4654 27.1846 22.4655 27.1846 22.4655C27.1845 22.4654 27.1842 22.4653 27.1836 22.4652C27.1826 22.4649 27.1807 22.4644 27.178 22.4637C27.1725 22.4622 27.1637 22.4599 27.1516 22.4567C27.1275 22.4505 27.0903 22.441 27.0408 22.4291C26.9417 22.4053 26.7935 22.3717 26.6016 22.3336C26.2178 22.2573 25.6603 22.1636 24.9742 22.0957C23.6 21.9597 21.7209 21.9284 19.6913 22.3423C15.6607 23.1642 10.9929 25.7455 8.49831 32.9095L7.55393 32.5807C10.1776 25.0462 15.1558 22.2466 19.4915 21.3625C21.6452 20.9233 23.6293 20.9577 25.0727 21.1005C25.7953 21.1721 26.3852 21.271 26.7964 21.3527C27.0021 21.3936 27.1633 21.4301 27.2744 21.4568C27.33 21.4702 27.373 21.4811 27.4028 21.4888C27.4177 21.4927 27.4293 21.4957 27.4375 21.4979C27.4416 21.499 27.4449 21.4999 27.4473 21.5006C27.4485 21.5009 27.4494 21.5012 27.4502 21.5014C27.4506 21.5015 27.451 21.5016 27.4512 21.5017C27.4516 21.5018 27.4519 21.5018 27.318 21.9836Z"
          fill="white"/>
</svg>
